# xmcd
# Copyright (C) 1995-1998 Ti Kan
#
# Track frame offsets:
#       150
#       25280
#       45175
#       65957
#       79702
#       99440
#       126451
#       145450
#       163841
#       187466
#
# Disc length: 3039 seconds
#
# Revision: 0
# Processed by: cddbd v1.5.2PL0 Copyright (c) Steve Scherf et al.
# Submitted via: CD-Import v1.0
#
DISCID=950bdd0a
DTITLE=David Gray - White Ladder
DYEAR=1900
DGENRE=
TTITLE0=Please Forgive Me
TTITLE1=Babylon
TTITLE2=My Oh My
TTITLE3=Were Not Right
TTITLE4=Nightblindness
TTITLE5=Silver Lining
TTITLE6=White Ladder
TTITLE7=This Years Love
TTITLE8=Sail Away
TTITLE9=Say Hello, Wave Goodbye
EXTD=
EXTT0=
EXTT1=
EXTT2=
EXTT3=
EXTT4=
EXTT5=
EXTT6=
EXTT7=
EXTT8=
EXTT9=
PLAYORDER=
